<svg version="1.1" id="Layer_1" xmlns:x="ns_extend;" xmlns:i="ns_ai;" xmlns:graph="ns_graphs;" xmlns="http://www.w3.org/2000/svg" xmlns:xlink="http://www.w3.org/1999/xlink" x="0px" y="0px" viewBox="0 0 38.1 50" style="enable-background:new 0 0 38.1 50;" xml:space="preserve">
 <style type="text/css">
  .st0{fill-rule:evenodd;clip-rule:evenodd;fill:#FFFFFF;}
 </style>
 <metadata>
  <sfw xmlns="ns_sfw;">
   <slices>
   </slices>
   <sliceSourceBounds bottomLeftOrigin="true" height="50" width="38.1" x="-64.8" y="-209.4">
   </sliceSourceBounds>
   <optimizationSettings>
    <targetSettings fileFormat="PNG24Format" targetSettingsID="0">
     <PNG24Format filtered="false" interlaced="false" matteColor="#FFFFFF" noMatteColor="false" transparency="true">
     </PNG24Format>
    </targetSettings>
   </optimizationSettings>
  </sfw>
 </metadata>
 <g>
  <path class="st0" d="M9.2,17.9c1.8,1.3,4.4,0.9,5.7-0.9l4.8-6.6C21,8.6,20.6,6,18.8,4.7c-1.8-1.3-4.4-0.9-5.7,0.9l-4.8,6.6
		C7,14,7.4,16.5,9.2,17.9z M31,8.6c-1.8-1.3-4.4-0.9-5.7,0.9L6.1,35.8c-1.3,1.8-0.9,4.4,0.9,5.7c1.8,1.3,4.4,0.9,5.7-0.9l19.1-26.3
		C33.2,12.5,32.8,9.9,31,8.6z M7.4,6.5c1.3-1.8,0.9-4.4-0.9-5.7C4.7-0.5,2.1-0.2,0.8,1.7C-0.5,3.5-0.2,6,1.7,7.4
		C3.5,8.7,6,8.3,7.4,6.5z M36.4,42.6c-1.8-1.3-4.4-0.9-5.7,0.9c-1.3,1.8-0.9,4.4,0.9,5.7c1.8,1.3,4.4,0.9,5.7-0.9
		C38.6,46.5,38.2,44,36.4,42.6z M28.9,32.2c-1.8-1.3-4.4-0.9-5.7,0.9l-4.8,6.6c-1.3,1.8-0.9,4.4,0.9,5.7c1.8,1.3,4.4,0.9,5.7-0.9
		l4.8-6.6C31.1,36.1,30.7,33.5,28.9,32.2z">
  </path>
 </g>
</svg>