<svg xmlns="http://www.w3.org/2000/svg" version="1.1" xmlns:xlink="http://www.w3.org/1999/xlink" width="512" height="512" x="0" y="0" viewBox="0 0 24 24" style="enable-background:new 0 0 512 512" xml:space="preserve" class=""><g><path fill="#000000" d="M14 7.75a.75.75 0 0 0 .75-.75V6A2.752 2.752 0 0 0 12 3.25H6A2.752 2.752 0 0 0 3.25 6v12A2.752 2.752 0 0 0 6 20.75h6A2.752 2.752 0 0 0 14.75 18v-1a.75.75 0 0 0-1.5 0v1c0 .689-.561 1.25-1.25 1.25H6c-.689 0-1.25-.561-1.25-1.25V6c0-.689.561-1.25 1.25-1.25h6c.689 0 1.25.561 1.25 1.25v1c0 .414.336.75.75.75z" opacity="1" data-original="#112d55"></path><path fill="#000000" d="m20.53 11.47-3-3a.75.75 0 1 0-1.061 1.061l1.72 1.72H8a.75.75 0 0 0 0 1.5h10.189l-1.72 1.72a.75.75 0 0 0 1.06 1.061l3-3a.75.75 0 0 0 0-1.061z" opacity="1" data-original="#549bff" class=""></path></g></svg>